g Cube_Maya
v -0.5 -0.5 0.5
v -0.5 0.5 0.5
v 0.5 0.5 0.5
v 0.5 -0.5 0.5
v -0.5 0.5 0.5
v -0.5 0.5 -0.5
v 0.5 0.5 -0.5
v 0.5 0.5 0.5
v -0.5 0.5 -0.5
v -0.5 -0.5 -0.5
v 0.5 -0.5 -0.5
v 0.5 0.5 -0.5
v -0.5 -0.5 -0.5
v -0.5 -0.5 0.5
v 0.5 -0.5 0.5
v 0.5 -0.5 -0.5
v 0.5 -0.5 0.5
v 0.5 0.5 0.5
v 0.5 0.5 -0.5
v 0.5 -0.5 -0.5
v -0.5 -0.5 -0.5
v -0.5 0.5 -0.5
v -0.5 0.5 0.5
v -0.5 -0.5 0.5
vt 0.0004800558 0.0008136332
vt 0.0004800558 1.000521
vt 1.000188 1.000521
vt 1.000188 0.0008136332
vt 0.0004800558 1.000521
vt 1.000187 1.000521
vt 1.000187 0.0008136332
vt 0.0004796982 0.0008133948
vt 1.000187 1.000521
vt 1.000187 0.000813663
vt 0.0004796982 0.000813663
vt 0.000480473 1.000521
vt 1.000188 0.0008136332
vt 0.000480175 0.0008134246
vt 0.0004801154 1.000521
vt 1.000187 1.000521
vt 0.0004799962 0.0008137226
vt 0.0004800558 1.000521
vt 1.000188 1.000521
vt 1.000188 0.0008137226
vt 0.000480175 0.0008137226
vt 0.000480175 1.000521
vt 1.000187 1.000521
vt 1.000187 0.0008137226
vn 0 0 1
vn 0 0 1
vn 0 0 1
vn 0 0 1
vn 0 1 0
vn 0 1 0
vn 0 1 0
vn 0 1 0
vn 0 0 -1
vn 0 0 -1
vn 0 0 -1
vn 0 0 -1
vn 0 -1 0
vn 0 -1 0
vn 0 -1 0
vn 0 -1 0
vn 1 0 0
vn 1 0 0
vn 1 0 0
vn 1 0 0
vn -1 0 0
vn -1 0 0
vn -1 0 0
vn -1 0 0
g Cube_Maya_0
f 3/3/3 2/2/2 1/1/1
f 4/4/4 3/3/3 1/1/1
f 7/7/7 6/6/6 5/5/5
f 8/8/8 7/7/7 5/5/5
f 11/11/11 10/10/10 9/9/9
f 12/12/12 11/11/11 9/9/9
f 15/15/15 14/14/14 13/13/13
f 16/16/16 15/15/15 13/13/13
f 19/19/19 18/18/18 17/17/17
f 20/20/20 19/19/19 17/17/17
f 23/23/23 22/22/22 21/21/21
f 24/24/24 23/23/23 21/21/21
