g Cube.001
v -0.009078853 -0.01113445 -0.02412447
v -0.009078854 -0.01113445 -0.007522809
v 0.009078848 -0.01113446 -0.007522808
v -0.009078856 -0.01113445 0.009078852
v 0.009078851 -0.01113446 -0.02412447
v -0.01 -0.01021331 -0.02412447
v -0.009078853 -0.01021331 -0.02504562
v 0.009078845 -0.01113446 0.009078852
v 0.009999994 -0.01021332 0.009078852
v 0.009999997 -0.01021331 -0.007522809
v 0.009078845 -0.01021331 0.01
v 0.009999999 -0.01021331 -0.02412447
v 0.01 0.01042621 0.009078852
v 0.01 0.01042621 -0.02412447
v 0.009078852 -0.01021331 -0.02504562
v 0.009078856 0.01042621 0.01
v 0.009078857 0.01134735 0.009078852
v -0.009078856 -0.01021331 0.01
v 0.009078852 0.01042621 -0.02504562
v 0.01 0.01042621 -0.007522808
v -0.01 -0.01021331 0.009078852
v -0.009078851 0.01042621 0.01
v -0.009999999 0.01042621 0.009078852
v -0.009078848 0.01042622 -0.02504562
v -0.01 -0.01021331 -0.007522808
v -0.009078851 0.01134736 0.009078852
v -0.009999996 0.01042622 -0.02412447
v -0.009999997 0.01042621 -0.007522809
v -0.009078848 0.01134736 -0.02412447
v -0.009078849 0.01134736 -0.007522808
v 0.009078852 0.01134736 -0.02412447
v 0.009078854 0.01134736 -0.007522809
vn -0.3415693 -0.8755917 -0.3415693
vn -0.3826815 -0.9238803 0
vn 0.3826815 -0.9238803 0
vn -0.3415693 -0.8755917 0.3415693
vn 0.3415693 -0.8755917 -0.3415693
vn -0.8755917 -0.3415693 -0.3415693
vn -0.3415693 -0.3415693 -0.8755917
vn 0.3415693 -0.8755917 0.3415693
vn 0.8755917 -0.3415693 0.3415693
vn 0.9238803 -0.3826815 0
vn 0.3415693 -0.3415693 0.8755917
vn 0.8755917 -0.3415693 -0.3415693
vn 0.8755917 0.3415693 0.3415693
vn 0.8755917 0.3415693 -0.3415693
vn 0.3415693 -0.3415693 -0.8755917
vn 0.3415693 0.3415693 0.8755917
vn 0.3415693 0.8755917 0.3415693
vn -0.3415693 -0.3415693 0.8755917
vn 0.3415693 0.3415693 -0.8755917
vn 0.9238803 0.3826815 0
vn -0.8755917 -0.3415693 0.3415693
vn -0.3415693 0.3415693 0.8755917
vn -0.8755917 0.3415693 0.3415693
vn -0.3415693 0.3415693 -0.8755917
vn -0.9238803 -0.3826815 0
vn -0.3415693 0.8755917 0.3415693
vn -0.8755917 0.3415693 -0.3415693
vn -0.9238803 0.3826815 0
vn -0.3415693 0.8755917 -0.3415693
vn -0.3826815 0.9238803 0
vn 0.3415693 0.8755917 -0.3415693
vn 0.3826815 0.9238803 0
g Cube.001_0
f 3/3/3 2/2/2 1/1/1
f 1/1/1 2/2/2 4/4/4
f 3/3/3 4/4/4 2/2/2
f 1/1/1 5/5/5 3/3/3
f 4/4/4 6/6/6 1/1/1
f 1/1/1 7/7/7 5/5/5
f 6/6/6 7/7/7 1/1/1
f 3/3/3 8/8/8 4/4/4
f 9/9/9 8/8/8 3/3/3
f 10/10/10 3/3/3 5/5/5
f 10/10/10 9/9/9 3/3/3
f 4/4/4 8/8/8 11/11/11
f 9/9/9 11/11/11 8/8/8
f 5/5/5 12/12/12 10/10/10
f 13/13/13 9/9/9 10/10/10
f 10/10/10 12/12/12 13/13/13
f 12/12/12 14/14/14 13/13/13
f 5/5/5 15/15/15 12/12/12
f 7/7/7 15/15/15 5/5/5
f 12/12/12 15/15/15 14/14/14
f 11/11/11 9/9/9 16/16/16
f 9/9/9 13/13/13 16/16/16
f 16/16/16 13/13/13 17/17/17
f 18/18/18 4/4/4 11/11/11
f 18/18/18 11/11/11 16/16/16
f 15/15/15 7/7/7 19/19/19
f 15/15/15 19/19/19 14/14/14
f 17/17/17 13/13/13 20/20/20
f 14/14/14 20/20/20 13/13/13
f 20/20/20 14/14/14 17/17/17
f 4/4/4 18/18/18 21/21/21
f 4/4/4 21/21/21 6/6/6
f 22/22/22 18/18/18 16/16/16
f 22/22/22 16/16/16 17/17/17
f 23/23/23 21/21/21 18/18/18
f 22/22/22 23/23/23 18/18/18
f 7/7/7 24/24/24 19/19/19
f 24/24/24 7/7/7 6/6/6
f 21/21/21 25/25/25 6/6/6
f 25/25/25 21/21/21 23/23/23
f 22/22/22 26/26/26 23/23/23
f 26/26/26 22/22/22 17/17/17
f 27/27/27 24/24/24 6/6/6
f 27/27/27 6/6/6 25/25/25
f 25/25/25 23/23/23 28/28/28
f 28/28/28 23/23/23 26/26/26
f 25/25/25 28/28/28 27/27/27
f 26/26/26 27/27/27 28/28/28
f 24/24/24 27/27/27 29/29/29
f 24/24/24 29/29/29 19/19/19
f 26/26/26 29/29/29 27/27/27
f 30/30/30 26/26/26 17/17/17
f 26/26/26 30/30/30 29/29/29
f 29/29/29 31/31/31 19/19/19
f 31/31/31 29/29/29 30/30/30
f 19/19/19 31/31/31 14/14/14
f 30/30/30 17/17/17 32/32/32
f 14/14/14 32/32/32 17/17/17
f 30/30/30 32/32/32 31/31/31
f 14/14/14 31/31/31 32/32/32
