g default
v 0.00063 2.423533 -1.172564
v 0.015754 2.421138 -1.172564
v 0.015754 2.421138 -0.61194
v 0.00063 2.423533 -0.61194
v -0.014493 2.421138 -1.172564
v 0.029396 2.414186 -0.61194
v 0.029396 2.414186 -1.172564
v -0.014493 2.421138 -0.61194
v -0.028136 2.414187 -1.172564
v 0.040223 2.403359 -0.61194
v 0.040223 2.40336 -1.172564
v -0.028136 2.414186 -0.61194
v -0.038963 2.40336 -1.172564
v 0.047175 2.389717 -0.61194
v 0.047175 2.389717 -1.172564
v 0.04957 2.374593 -0.61194
v 0.04957 2.374593 -1.172564
v 0.047175 2.35947 -0.61194
v 0.047175 2.35947 -1.172564
v 0.040223 2.345827 -0.61194
v 0.040223 2.345828 -1.172564
v 0.029396 2.335 -0.61194
v 0.029396 2.335001 -1.172564
v 0.015754 2.328049 -0.61194
v 0.015754 2.328049 -1.172564
v 0.00063 2.325654 -0.61194
v 0.00063 2.325654 -1.172564
v -0.014493 2.328049 -0.61194
v -0.014493 2.328049 -1.172564
v -0.028136 2.335 -0.61194
v -0.028136 2.335001 -1.172564
v -0.038963 2.40336 -0.61194
v -0.045914 2.389717 -1.172564
v -0.038963 2.345827 -0.61194
v -0.038963 2.345828 -1.172564
v -0.045914 2.389717 -0.61194
v -0.048309 2.374593 -1.172564
v -0.045914 2.35947 -0.61194
v -0.045914 2.35947 -1.172564
v -0.048309 2.374593 -0.61194
v 0.000608 2.409885 -0.642099
v 0.021664 2.409885 -0.635258
v 0.012003 2.420866 -0.621961
v 0.000608 2.420866 -0.625664
v 0.000608 2.424723 -0.606277
v 0.019046 2.420866 -0.612268
v -0.010787 2.420866 -0.621961
v -0.020447 2.409885 -0.635258
v 0.000608 2.39345 -0.653081
v -0.026902 2.39345 -0.644142
v 0.034677 2.409885 -0.617347
v 0.019046 2.420866 -0.600286
v 0.028119 2.39345 -0.644142
v -0.03346 2.409885 -0.617347
v -0.043905 2.39345 -0.62074
v -0.01783 2.420866 -0.612268
v 0.034677 2.409885 -0.595208
v 0.045121 2.39345 -0.62074
v 0.012003 2.420866 -0.590593
v 0.000608 2.374063 -0.656937
v -0.029169 2.374063 -0.647262
v -0.047572 2.374063 -0.621932
v 0.030385 2.374063 -0.647262
v 0.045121 2.39345 -0.591814
v 0.021664 2.409885 -0.577297
v 0.000608 2.420866 -0.586891
v 0.048788 2.374063 -0.621932
v -0.026902 2.354676 -0.644142
v 0.000608 2.354676 -0.653081
v -0.043905 2.354676 -0.62074
v 0.028119 2.354676 -0.644142
v -0.010787 2.420866 -0.590593
v 0.000608 2.409885 -0.570455
v 0.028119 2.39345 -0.568412
v 0.048788 2.374063 -0.590622
v -0.01783 2.420866 -0.600286
v -0.020447 2.409885 -0.577297
v -0.03346 2.409885 -0.595208
v 0.000608 2.39345 -0.559474
v -0.026902 2.39345 -0.568412
v -0.043905 2.39345 -0.591814
v 0.030385 2.374063 -0.565293
v 0.000608 2.374063 -0.555617
v -0.029169 2.374063 -0.565293
v -0.047572 2.374063 -0.590622
v -0.043905 2.354676 -0.591814
v -0.026902 2.354676 -0.568412
v 0.000608 2.354676 -0.559474
v 0.028119 2.354676 -0.568412
v 0.045121 2.354676 -0.591814
v 0.045121 2.354676 -0.62074
v -0.03346 2.338241 -0.595208
v -0.020447 2.338241 -0.577297
v 0.000608 2.338241 -0.570455
v 0.021664 2.338241 -0.577297
v 0.034677 2.338241 -0.595208
v 0.034677 2.338241 -0.617347
v 0.021664 2.338241 -0.635258
v -0.03346 2.338241 -0.617347
v 0.000608 2.338241 -0.642099
v -0.020447 2.338241 -0.635258
v 0.019046 2.32726 -0.600286
v 0.019046 2.32726 -0.612268
v 0.000608 2.323403 -0.606277
v 0.012003 2.32726 -0.621961
v 0.012003 2.32726 -0.590593
v 0.000608 2.32726 -0.625664
v 0.000608 2.32726 -0.586891
v -0.010787 2.32726 -0.621961
v -0.010787 2.32726 -0.590593
v -0.01783 2.32726 -0.612268
v -0.01783 2.32726 -0.600286
vn 0 1 0
vn 0.3090182 0.9510561 0
vn 0.2284025 0.7030078 0.6735074
vn 0 0.739193 0.6734936
vn -0.3090182 0.9510561 0
vn 0.4345008 0.5980011 0.6735012
vn 0.587803 0.8090041 0
vn -0.2284025 0.7030078 0.6735074
vn -0.587803 0.8090041 0
vn 0.5980011 0.4345008 0.6735012
vn 0.8090041 0.587803 0
vn -0.4345008 0.5980011 0.6735012
vn -0.8090041 0.587803 0
vn 0.7030078 0.2284025 0.6735074
vn 0.9510561 0.3090182 0
vn 0.7391477 0 0.6735435
vn 1 0 0
vn 0.7030078 -0.2284025 0.6735074
vn 0.9510561 -0.3090182 0
vn 0.5980011 -0.4345008 0.6735012
vn 0.8090041 -0.587803 0
vn 0.4345008 -0.5980011 0.6735012
vn 0.587803 -0.8090041 0
vn 0.2284025 -0.7030078 0.6735074
vn 0.3090182 -0.9510561 0
vn 0 -0.7391477 0.6735435
vn 0 -1 0
vn -0.2284025 -0.7030078 0.6735074
vn -0.3090182 -0.9510561 0
vn -0.4345008 -0.5980011 0.6735012
vn -0.587803 -0.8090041 0
vn -0.5980011 0.4345008 0.6735012
vn -0.9510561 0.3090182 0
vn -0.5980011 -0.4345008 0.6735012
vn -0.8090041 -0.587803 0
vn -0.7030078 0.2284025 0.6735074
vn -1 0 0
vn -0.7030078 -0.2284025 0.6735074
vn -0.9510561 -0.3090182 0
vn -0.7391477 0 0.6735435
vn 0 0.6883131 -0.7254138
vn 0.4263946 0.6882913 -0.5868925
vn 0.2439182 0.909868 -0.3356251
vn 0 0.9098555 -0.4149253
vn 0 1 0
vn 0.3946236 0.9098544 -0.1282077
vn -0.2439182 0.909868 -0.3356251
vn -0.4263946 0.6882913 -0.5868925
vn 0 0.3697176 -0.9291441
vn -0.546112 0.3697081 -0.7517164
vn 0.6899053 0.6883053 -0.2242017
vn 0.3946236 0.9098544 0.1282077
vn 0.546112 0.3697081 -0.7517164
vn -0.6899053 0.6883053 -0.2242017
vn -0.8836867 0.3696944 -0.2870957
vn -0.3946236 0.9098544 -0.1282077
vn 0.6899053 0.6883053 0.2242017
vn 0.8836867 0.3696944 -0.2870957
vn 0.2439182 0.909868 0.3356251
vn 0 0 -1
vn -0.587803 0 -0.8090041
vn -0.9510561 0 -0.3090182
vn 0.587803 0 -0.8090041
vn 0.8836867 0.3696944 0.2870957
vn 0.4263946 0.6882913 0.5868925
vn 0 0.9098555 0.4149253
vn 0.9510561 0 -0.3090182
vn -0.546112 -0.3697081 -0.7517164
vn 0 -0.3697176 -0.9291441
vn -0.8836867 -0.3696944 -0.2870957
vn 0.546112 -0.3697081 -0.7517164
vn -0.2439182 0.909868 0.3356251
vn 0 0.6883131 0.7254138
vn 0.546112 0.3697081 0.7517164
vn 0.9510561 0 0.3090182
vn -0.3946236 0.9098544 0.1282077
vn -0.4263946 0.6882913 0.5868925
vn -0.6899053 0.6883053 0.2242017
vn 0 0.3697176 0.9291441
vn -0.546112 0.3697081 0.7517164
vn -0.8836867 0.3696944 0.2870957
vn 0.587803 0 0.8090041
vn 0 0 1
vn -0.587803 0 0.8090041
vn -0.9510561 0 0.3090182
vn -0.8836867 -0.3696944 0.2870957
vn -0.546112 -0.3697081 0.7517164
vn 0 -0.3697176 0.9291441
vn 0.546112 -0.3697081 0.7517164
vn 0.8836867 -0.3696944 0.2870957
vn 0.8836867 -0.3696944 -0.2870957
vn -0.6899053 -0.6883053 0.2242017
vn -0.4263946 -0.6882913 0.5868925
vn 0 -0.6883131 0.7254138
vn 0.4263946 -0.6882913 0.5868925
vn 0.6899053 -0.6883053 0.2242017
vn 0.6899053 -0.6883053 -0.2242017
vn 0.4263946 -0.6882913 -0.5868925
vn -0.6899053 -0.6883053 -0.2242017
vn 0 -0.6883131 -0.7254138
vn -0.4263946 -0.6882913 -0.5868925
vn 0.3946236 -0.9098544 0.1282077
vn 0.3946236 -0.9098544 -0.1282077
vn 0 -1 0
vn 0.2439182 -0.909868 -0.3356251
vn 0.2439182 -0.909868 0.3356251
vn 0 -0.9098555 -0.4149253
vn 0 -0.9098555 0.4149253
vn -0.2439182 -0.909868 -0.3356251
vn -0.2439182 -0.909868 0.3356251
vn -0.3946236 -0.9098544 -0.1282077
vn -0.3946236 -0.9098544 0.1282077
g default_0
f 3/3/3 2/2/2 1/1/1
f 4/4/4 3/3/3 1/1/1
f 4/4/4 1/1/1 5/5/5
f 3/3/3 6/6/6 2/2/2
f 6/6/6 7/7/7 2/2/2
f 8/8/8 4/4/4 5/5/5
f 8/8/8 5/5/5 9/9/9
f 6/6/6 10/10/10 7/7/7
f 10/10/10 11/11/11 7/7/7
f 12/12/12 8/8/8 9/9/9
f 12/12/12 9/9/9 13/13/13
f 10/10/10 14/14/14 11/11/11
f 14/14/14 15/15/15 11/11/11
f 14/14/14 16/16/16 15/15/15
f 16/16/16 17/17/17 15/15/15
f 18/18/18 16/16/16 14/14/14
f 16/16/16 18/18/18 17/17/17
f 14/14/14 10/10/10 18/18/18
f 18/18/18 19/19/19 17/17/17
f 10/10/10 20/20/20 18/18/18
f 18/18/18 20/20/20 19/19/19
f 10/10/10 6/6/6 20/20/20
f 20/20/20 21/21/21 19/19/19
f 6/6/6 22/22/22 20/20/20
f 20/20/20 22/22/22 21/21/21
f 6/6/6 3/3/3 22/22/22
f 22/22/22 23/23/23 21/21/21
f 3/3/3 24/24/24 22/22/22
f 22/22/22 24/24/24 23/23/23
f 3/3/3 4/4/4 24/24/24
f 24/24/24 25/25/25 23/23/23
f 4/4/4 26/26/26 24/24/24
f 24/24/24 26/26/26 25/25/25
f 4/4/4 8/8/8 26/26/26
f 26/26/26 27/27/27 25/25/25
f 8/8/8 28/28/28 26/26/26
f 26/26/26 28/28/28 27/27/27
f 28/28/28 29/29/29 27/27/27
f 8/8/8 12/12/12 28/28/28
f 28/28/28 30/30/30 29/29/29
f 12/12/12 30/30/30 28/28/28
f 30/30/30 31/31/31 29/29/29
f 12/12/12 32/32/32 30/30/30
f 32/32/32 12/12/12 13/13/13
f 32/32/32 13/13/13 33/33/33
f 30/30/30 34/34/34 31/31/31
f 32/32/32 34/34/34 30/30/30
f 34/34/34 35/35/35 31/31/31
f 36/36/36 32/32/32 33/33/33
f 32/32/32 36/36/36 34/34/34
f 36/36/36 33/33/33 37/37/37
f 34/34/34 38/38/38 35/35/35
f 36/36/36 38/38/38 34/34/34
f 38/38/38 39/39/39 35/35/35
f 40/40/40 37/37/37 39/39/39
f 40/40/40 36/36/36 37/37/37
f 38/38/38 40/40/40 39/39/39
f 36/36/36 40/40/40 38/38/38
f 43/43/43 42/42/42 41/41/41
f 44/44/44 43/43/43 41/41/41
f 45/45/45 43/43/43 44/44/44
f 45/45/45 46/46/46 43/43/43
f 43/43/43 46/46/46 42/42/42
f 45/45/45 44/44/44 47/47/47
f 44/44/44 41/41/41 48/48/48
f 47/47/47 44/44/44 48/48/48
f 41/41/41 42/42/42 49/49/49
f 48/48/48 41/41/41 50/50/50
f 41/41/41 49/49/49 50/50/50
f 46/46/46 51/51/51 42/42/42
f 45/45/45 52/52/52 46/46/46
f 46/46/46 52/52/52 51/51/51
f 42/42/42 53/53/53 49/49/49
f 42/42/42 51/51/51 53/53/53
f 47/47/47 48/48/48 54/54/54
f 48/48/48 50/50/50 55/55/55
f 54/54/54 48/48/48 55/55/55
f 45/45/45 47/47/47 56/56/56
f 56/56/56 47/47/47 54/54/54
f 52/52/52 57/57/57 51/51/51
f 51/51/51 58/58/58 53/53/53
f 51/51/51 57/57/57 58/58/58
f 45/45/45 59/59/59 52/52/52
f 52/52/52 59/59/59 57/57/57
f 49/49/49 53/53/53 60/60/60
f 50/50/50 49/49/49 61/61/61
f 49/49/49 60/60/60 61/61/61
f 55/55/55 50/50/50 62/62/62
f 50/50/50 61/61/61 62/62/62
f 53/53/53 58/58/58 63/63/63
f 53/53/53 63/63/63 60/60/60
f 57/57/57 64/64/64 58/58/58
f 59/59/59 65/65/65 57/57/57
f 57/57/57 65/65/65 64/64/64
f 45/45/45 66/66/66 59/59/59
f 59/59/59 66/66/66 65/65/65
f 58/58/58 67/67/67 63/63/63
f 58/58/58 64/64/64 67/67/67
f 61/61/61 60/60/60 68/68/68
f 60/60/60 63/63/63 69/69/69
f 60/60/60 69/69/69 68/68/68
f 62/62/62 61/61/61 70/70/70
f 61/61/61 68/68/68 70/70/70
f 63/63/63 67/67/67 71/71/71
f 63/63/63 71/71/71 69/69/69
f 45/45/45 72/72/72 66/66/66
f 66/66/66 73/73/73 65/65/65
f 66/66/66 72/72/72 73/73/73
f 65/65/65 74/74/74 64/64/64
f 65/65/65 73/73/73 74/74/74
f 64/64/64 75/75/75 67/67/67
f 64/64/64 74/74/74 75/75/75
f 45/45/45 76/76/76 72/72/72
f 45/45/45 56/56/56 76/76/76
f 72/72/72 77/77/77 73/73/73
f 72/72/72 76/76/76 77/77/77
f 76/76/76 56/56/56 78/78/78
f 76/76/76 78/78/78 77/77/77
f 56/56/56 54/54/54 78/78/78
f 73/73/73 79/79/79 74/74/74
f 73/73/73 77/77/77 79/79/79
f 77/77/77 78/78/78 80/80/80
f 77/77/77 80/80/80 79/79/79
f 78/78/78 54/54/54 81/81/81
f 78/78/78 81/81/81 80/80/80
f 54/54/54 55/55/55 81/81/81
f 74/74/74 79/79/79 82/82/82
f 74/74/74 82/82/82 75/75/75
f 79/79/79 80/80/80 83/83/83
f 79/79/79 83/83/83 82/82/82
f 80/80/80 81/81/81 84/84/84
f 80/80/80 84/84/84 83/83/83
f 81/81/81 55/55/55 85/85/85
f 81/81/81 85/85/85 84/84/84
f 55/55/55 62/62/62 85/85/85
f 85/85/85 62/62/62 86/86/86
f 62/62/62 70/70/70 86/86/86
f 84/84/84 85/85/85 87/87/87
f 85/85/85 86/86/86 87/87/87
f 83/83/83 84/84/84 88/88/88
f 84/84/84 87/87/87 88/88/88
f 82/82/82 83/83/83 89/89/89
f 83/83/83 88/88/88 89/89/89
f 75/75/75 82/82/82 90/90/90
f 82/82/82 89/89/89 90/90/90
f 75/75/75 90/90/90 91/91/91
f 67/67/67 75/75/75 91/91/91
f 67/67/67 91/91/91 71/71/71
f 86/86/86 70/70/70 92/92/92
f 87/87/87 86/86/86 93/93/93
f 86/86/86 92/92/92 93/93/93
f 88/88/88 87/87/87 94/94/94
f 87/87/87 93/93/93 94/94/94
f 89/89/89 88/88/88 95/95/95
f 88/88/88 94/94/94 95/95/95
f 90/90/90 89/89/89 96/96/96
f 89/89/89 95/95/95 96/96/96
f 91/91/91 90/90/90 97/97/97
f 90/90/90 96/96/96 97/97/97
f 71/71/71 91/91/91 98/98/98
f 91/91/91 97/97/97 98/98/98
f 70/70/70 99/99/99 92/92/92
f 70/70/70 68/68/68 99/99/99
f 71/71/71 98/98/98 100/100/100
f 69/69/69 71/71/71 100/100/100
f 68/68/68 69/69/69 101/101/101
f 68/68/68 101/101/101 99/99/99
f 69/69/69 100/100/100 101/101/101
f 96/96/96 95/95/95 102/102/102
f 97/97/97 96/96/96 103/103/103
f 96/96/96 102/102/102 103/103/103
f 103/103/103 102/102/102 104/104/104
f 105/105/105 103/103/103 104/104/104
f 97/97/97 103/103/103 105/105/105
f 98/98/98 97/97/97 105/105/105
f 102/102/102 106/106/106 104/104/104
f 95/95/95 106/106/106 102/102/102
f 95/95/95 94/94/94 106/106/106
f 98/98/98 105/105/105 107/107/107
f 100/100/100 98/98/98 107/107/107
f 107/107/107 105/105/105 104/104/104
f 94/94/94 108/108/108 106/106/106
f 106/106/106 108/108/108 104/104/104
f 94/94/94 93/93/93 108/108/108
f 100/100/100 107/107/107 109/109/109
f 109/109/109 107/107/107 104/104/104
f 101/101/101 100/100/100 109/109/109
f 93/93/93 110/110/110 108/108/108
f 108/108/108 110/110/110 104/104/104
f 93/93/93 92/92/92 110/110/110
f 101/101/101 109/109/109 111/111/111
f 111/111/111 109/109/109 104/104/104
f 99/99/99 101/101/101 111/111/111
f 110/110/110 112/112/112 104/104/104
f 92/92/92 112/112/112 110/110/110
f 112/112/112 111/111/111 104/104/104
f 99/99/99 111/111/111 112/112/112
f 92/92/92 99/99/99 112/112/112
