g default
v 0.000608 2.232232 -1.640632
v 0.043404 2.232232 -1.626727
v 0.023769 2.254552 -1.599701
v 0.000608 2.254552 -1.607227
v 0.000608 2.26239 -1.567823
v 0.038083 2.254552 -1.579999
v -0.022553 2.254552 -1.599701
v -0.042188 2.232232 -1.626727
v 0.000608 2.198827 -1.662952
v -0.055307 2.198827 -1.644784
v 0.069854 2.232232 -1.590322
v 0.038083 2.254552 -1.555647
v 0.056524 2.198827 -1.644784
v -0.068637 2.232232 -1.590322
v -0.089865 2.198827 -1.59722
v -0.036867 2.254552 -1.579999
v 0.069854 2.232232 -1.545324
v 0.091082 2.198827 -1.59722
v 0.023769 2.254552 -1.535945
v 0.000608 2.159423 -1.67079
v -0.059914 2.159423 -1.651125
v -0.097319 2.159423 -1.599642
v 0.061131 2.159423 -1.651125
v 0.091082 2.198827 -1.538426
v 0.043404 2.232232 -1.508919
v 0.000608 2.254552 -1.528419
v 0.098536 2.159423 -1.599642
v -0.055307 2.120019 -1.644784
v 0.000608 2.120019 -1.662952
v -0.089865 2.120019 -1.59722
v 0.056524 2.120019 -1.644784
v -0.022553 2.254552 -1.535945
v 0.000608 2.232232 -1.495014
v 0.056524 2.198827 -1.490862
v 0.098536 2.159423 -1.536004
v -0.036867 2.254552 -1.555647
v -0.042188 2.232232 -1.508919
v -0.068637 2.232232 -1.545324
v 0.000608 2.198827 -1.472694
v -0.055307 2.198827 -1.490862
v -0.089865 2.198827 -1.538426
v 0.061131 2.159423 -1.484521
v 0.000608 2.159423 -1.464856
v -0.059914 2.159423 -1.484521
v -0.097319 2.159423 -1.536004
v -0.089865 2.120019 -1.538426
v -0.055307 2.120019 -1.490862
v 0.000608 2.120019 -1.472694
v 0.056524 2.120019 -1.490862
v 0.091082 2.120019 -1.538426
v 0.091082 2.120019 -1.59722
v -0.068637 2.086614 -1.545324
v -0.042188 2.086614 -1.508919
v 0.000608 2.086614 -1.495014
v 0.043404 2.086614 -1.508919
v 0.069854 2.086614 -1.545324
v 0.069854 2.086614 -1.590322
v 0.043404 2.086614 -1.626727
v -0.068637 2.086614 -1.590322
v 0.000608 2.086614 -1.640632
v -0.042188 2.086614 -1.626727
v 0.038083 2.064294 -1.555647
v 0.038083 2.064294 -1.579999
v 0.000608 2.056456 -1.567823
v 0.023769 2.064294 -1.599701
v 0.023769 2.064294 -1.535945
v 0.000608 2.064294 -1.607227
v 0.000608 2.064294 -1.528419
v -0.022553 2.064294 -1.599701
v -0.022553 2.064294 -1.535945
v -0.036867 2.064294 -1.579999
v -0.036867 2.064294 -1.555647
v 0.000608 2.195245 -0.971531
v 0.021664 2.195245 -0.96469
v 0.012003 2.206226 -0.951393
v 0.000608 2.206226 -0.955096
v 0.000608 2.210083 -0.935709
v 0.019046 2.206226 -0.9417
v -0.010787 2.206226 -0.951393
v -0.020447 2.195245 -0.96469
v 0.000608 2.17881 -0.982513
v -0.026902 2.17881 -0.973574
v 0.034677 2.195245 -0.946779
v 0.019046 2.206226 -0.929718
v 0.028119 2.17881 -0.973574
v -0.03346 2.195245 -0.946779
v -0.043905 2.17881 -0.950172
v -0.01783 2.206226 -0.9417
v 0.034677 2.195245 -0.92464
v 0.045121 2.17881 -0.950172
v 0.012003 2.206226 -0.920025
v 0.000608 2.159423 -0.986369
v -0.029169 2.159423 -0.976694
v -0.047572 2.159423 -0.951364
v 0.030385 2.159423 -0.976694
v 0.045121 2.17881 -0.921246
v 0.021664 2.195245 -0.906729
v 0.000608 2.206226 -0.916322
v 0.048788 2.159423 -0.951364
v -0.026902 2.140036 -0.973574
v 0.000608 2.140036 -0.982513
v -0.043905 2.140036 -0.950172
v 0.028119 2.140036 -0.973574
v -0.010787 2.206226 -0.920025
v 0.000608 2.195245 -0.899887
v 0.028119 2.17881 -0.897844
v 0.048788 2.159423 -0.920054
v -0.01783 2.206226 -0.929718
v -0.020447 2.195245 -0.906729
v -0.03346 2.195245 -0.92464
v 0.000608 2.17881 -0.888906
v -0.026902 2.17881 -0.897844
v -0.043905 2.17881 -0.921246
v 0.030385 2.159423 -0.894724
v 0.000608 2.159423 -0.885049
v -0.029169 2.159423 -0.894724
v -0.047572 2.159423 -0.920054
v -0.043905 2.140036 -0.921246
v -0.026902 2.140036 -0.897844
v 0.000608 2.140036 -0.888906
v 0.028119 2.140036 -0.897844
v 0.045121 2.140036 -0.921246
v 0.045121 2.140036 -0.950172
v -0.03346 2.123601 -0.92464
v -0.020447 2.123601 -0.906729
v 0.000608 2.123601 -0.899887
v 0.021664 2.123601 -0.906729
v 0.034677 2.123601 -0.92464
v 0.034677 2.123601 -0.946779
v 0.021664 2.123601 -0.96469
v -0.03346 2.123601 -0.946779
v 0.000608 2.123601 -0.971531
v -0.020447 2.123601 -0.96469
v 0.019046 2.112619 -0.929718
v 0.019046 2.112619 -0.9417
v 0.000608 2.108763 -0.935709
v 0.012003 2.112619 -0.951393
v 0.012003 2.112619 -0.920025
v 0.000608 2.112619 -0.955096
v 0.000608 2.112619 -0.916322
v -0.010787 2.112619 -0.951393
v -0.010787 2.112619 -0.920025
v -0.01783 2.112619 -0.9417
v -0.01783 2.112619 -0.929718
v 0.00063 2.208893 -1.501996
v 0.015754 2.206498 -1.501996
v 0.015754 2.206498 -0.941372
v 0.00063 2.208893 -0.941372
v -0.014493 2.206498 -1.501996
v 0.029396 2.199546 -0.941372
v 0.029396 2.199546 -1.501996
v -0.014493 2.206498 -0.941372
v -0.028136 2.199547 -1.501996
v 0.040223 2.188719 -0.941372
v 0.040223 2.18872 -1.501996
v -0.028136 2.199546 -0.941372
v -0.038963 2.18872 -1.501996
v 0.047175 2.175076 -0.941372
v 0.047175 2.175076 -1.501996
v 0.04957 2.159953 -0.941372
v 0.04957 2.159953 -1.501996
v 0.047175 2.14483 -0.941372
v 0.047175 2.14483 -1.501996
v 0.040223 2.131187 -0.941372
v 0.040223 2.131187 -1.501996
v 0.029396 2.12036 -0.941372
v 0.029396 2.12036 -1.501996
v 0.015754 2.113409 -0.941372
v 0.015754 2.113409 -1.501996
v 0.00063 2.111014 -0.941372
v 0.00063 2.111014 -1.501996
v -0.014493 2.113409 -0.941372
v -0.014493 2.113409 -1.501996
v -0.028136 2.12036 -0.941372
v -0.028136 2.12036 -1.501996
v -0.038963 2.18872 -0.941372
v -0.045914 2.175077 -1.501996
v -0.038963 2.131187 -0.941372
v -0.038963 2.131187 -1.501996
v -0.045914 2.175076 -0.941372
v -0.048309 2.159953 -1.501996
v -0.045914 2.14483 -0.941372
v -0.045914 2.14483 -1.501996
v -0.048309 2.159953 -0.941372
vn 0 0.6883131 -0.7254138
vn 0.4263946 0.6882913 -0.5868925
vn 0.2439182 0.909868 -0.3356251
vn 0 0.9098555 -0.4149253
vn 0 1 0
vn 0.3946236 0.9098544 -0.1282077
vn -0.2439182 0.909868 -0.3356251
vn -0.4263946 0.6882913 -0.5868925
vn 0 0.3697176 -0.9291441
vn -0.546112 0.3697081 -0.7517164
vn 0.6899053 0.6883053 -0.2242017
vn 0.3946236 0.9098544 0.1282077
vn 0.546112 0.3697081 -0.7517164
vn -0.6899053 0.6883053 -0.2242017
vn -0.8836867 0.3696944 -0.2870957
vn -0.3946236 0.9098544 -0.1282077
vn 0.6899053 0.6883053 0.2242017
vn 0.8836867 0.3696944 -0.2870957
vn 0.2439182 0.909868 0.3356251
vn 0 0 -1
vn -0.587803 0 -0.8090041
vn -0.9510561 0 -0.3090182
vn 0.587803 0 -0.8090041
vn 0.8836867 0.3696944 0.2870957
vn 0.4263946 0.6882913 0.5868925
vn 0 0.9098555 0.4149253
vn 0.9510561 0 -0.3090182
vn -0.546112 -0.3697081 -0.7517164
vn 0 -0.3697176 -0.9291441
vn -0.8836867 -0.3696944 -0.2870957
vn 0.546112 -0.3697081 -0.7517164
vn -0.2439182 0.909868 0.3356251
vn 0 0.6883131 0.7254138
vn 0.546112 0.3697081 0.7517164
vn 0.9510561 0 0.3090182
vn -0.3946236 0.9098544 0.1282077
vn -0.4263946 0.6882913 0.5868925
vn -0.6899053 0.6883053 0.2242017
vn 0 0.3697176 0.9291441
vn -0.546112 0.3697081 0.7517164
vn -0.8836867 0.3696944 0.2870957
vn 0.587803 0 0.8090041
vn 0 0 1
vn -0.587803 0 0.8090041
vn -0.9510561 0 0.3090182
vn -0.8836867 -0.3696944 0.2870957
vn -0.546112 -0.3697081 0.7517164
vn 0 -0.3697176 0.9291441
vn 0.546112 -0.3697081 0.7517164
vn 0.8836867 -0.3696944 0.2870957
vn 0.8836867 -0.3696944 -0.2870957
vn -0.6899053 -0.6883053 0.2242017
vn -0.4263946 -0.6882913 0.5868925
vn 0 -0.6883131 0.7254138
vn 0.4263946 -0.6882913 0.5868925
vn 0.6899053 -0.6883053 0.2242017
vn 0.6899053 -0.6883053 -0.2242017
vn 0.4263946 -0.6882913 -0.5868925
vn -0.6899053 -0.6883053 -0.2242017
vn 0 -0.6883131 -0.7254138
vn -0.4263946 -0.6882913 -0.5868925
vn 0.3946236 -0.9098544 0.1282077
vn 0.3946236 -0.9098544 -0.1282077
vn 0 -1 0
vn 0.2439182 -0.909868 -0.3356251
vn 0.2439182 -0.909868 0.3356251
vn 0 -0.9098555 -0.4149253
vn 0 -0.9098555 0.4149253
vn -0.2439182 -0.909868 -0.3356251
vn -0.2439182 -0.909868 0.3356251
vn -0.3946236 -0.9098544 -0.1282077
vn -0.3946236 -0.9098544 0.1282077
vn 0 0.6883131 -0.7254138
vn 0.4263946 0.6882913 -0.5868925
vn 0.2439182 0.909868 -0.3356251
vn 0 0.9098555 -0.4149253
vn 0 1 0
vn 0.3946236 0.9098544 -0.1282077
vn -0.2439182 0.909868 -0.3356251
vn -0.4263946 0.6882913 -0.5868925
vn 0 0.3697176 -0.9291441
vn -0.546112 0.3697081 -0.7517164
vn 0.6899053 0.6883053 -0.2242017
vn 0.3946236 0.9098544 0.1282077
vn 0.546112 0.3697081 -0.7517164
vn -0.6899053 0.6883053 -0.2242017
vn -0.8836867 0.3696944 -0.2870957
vn -0.3946236 0.9098544 -0.1282077
vn 0.6899053 0.6883053 0.2242017
vn 0.8836867 0.3696944 -0.2870957
vn 0.2439182 0.909868 0.3356251
vn 0 0 -1
vn -0.587803 0 -0.8090041
vn -0.9510561 0 -0.3090182
vn 0.587803 0 -0.8090041
vn 0.8836867 0.3696944 0.2870957
vn 0.4263946 0.6882913 0.5868925
vn 0 0.9098555 0.4149253
vn 0.9510561 0 -0.3090182
vn -0.546112 -0.3697081 -0.7517164
vn 0 -0.3697176 -0.9291441
vn -0.8836867 -0.3696944 -0.2870957
vn 0.546112 -0.3697081 -0.7517164
vn -0.2439182 0.909868 0.3356251
vn 0 0.6883131 0.7254138
vn 0.546112 0.3697081 0.7517164
vn 0.9510561 0 0.3090182
vn -0.3946236 0.9098544 0.1282077
vn -0.4263946 0.6882913 0.5868925
vn -0.6899053 0.6883053 0.2242017
vn 0 0.3697176 0.9291441
vn -0.546112 0.3697081 0.7517164
vn -0.8836867 0.3696944 0.2870957
vn 0.587803 0 0.8090041
vn 0 0 1
vn -0.587803 0 0.8090041
vn -0.9510561 0 0.3090182
vn -0.8836867 -0.3696944 0.2870957
vn -0.546112 -0.3697081 0.7517164
vn 0 -0.3697176 0.9291441
vn 0.546112 -0.3697081 0.7517164
vn 0.8836867 -0.3696944 0.2870957
vn 0.8836867 -0.3696944 -0.2870957
vn -0.6899053 -0.6883053 0.2242017
vn -0.4263946 -0.6882913 0.5868925
vn 0 -0.6883131 0.7254138
vn 0.4263946 -0.6882913 0.5868925
vn 0.6899053 -0.6883053 0.2242017
vn 0.6899053 -0.6883053 -0.2242017
vn 0.4263946 -0.6882913 -0.5868925
vn -0.6899053 -0.6883053 -0.2242017
vn 0 -0.6883131 -0.7254138
vn -0.4263946 -0.6882913 -0.5868925
vn 0.3946236 -0.9098544 0.1282077
vn 0.3946236 -0.9098544 -0.1282077
vn 0 -1 0
vn 0.2439182 -0.909868 -0.3356251
vn 0.2439182 -0.909868 0.3356251
vn 0 -0.9098555 -0.4149253
vn 0 -0.9098555 0.4149253
vn -0.2439182 -0.909868 -0.3356251
vn -0.2439182 -0.909868 0.3356251
vn -0.3946236 -0.9098544 -0.1282077
vn -0.3946236 -0.9098544 0.1282077
vn 0 1 0
vn 0.3090182 0.9510561 0
vn 0.2284025 0.7030078 0.6735074
vn 0 0.739193 0.6734936
vn -0.3090182 0.9510561 0
vn 0.4345008 0.5980011 0.6735012
vn 0.587803 0.8090041 0
vn -0.2284025 0.7030078 0.6735074
vn -0.587803 0.8090041 0
vn 0.5980011 0.4345008 0.6735012
vn 0.8090041 0.587803 0
vn -0.4345008 0.5980011 0.6735012
vn -0.8090041 0.587803 0
vn 0.7030078 0.2284025 0.6735074
vn 0.9510561 0.3090182 0
vn 0.7391477 0 0.6735435
vn 1 0 0
vn 0.7030078 -0.2284025 0.6735074
vn 0.9510561 -0.3090182 0
vn 0.5980011 -0.4345008 0.6735012
vn 0.8090041 -0.587803 0
vn 0.4345008 -0.5980011 0.6735012
vn 0.587803 -0.8090041 0
vn 0.2284025 -0.7030078 0.6735074
vn 0.3090182 -0.9510561 0
vn 0 -0.7391477 0.6735435
vn 0 -1 0
vn -0.2284025 -0.7030078 0.6735074
vn -0.3090182 -0.9510561 0
vn -0.4345008 -0.5980011 0.6735012
vn -0.587803 -0.8090041 0
vn -0.5980011 0.4345008 0.6735012
vn -0.9510561 0.3090182 0
vn -0.5980011 -0.4345008 0.6735012
vn -0.8090041 -0.587803 0
vn -0.7030078 0.2284025 0.6735074
vn -1 0 0
vn -0.7030078 -0.2284025 0.6735074
vn -0.9510561 -0.3090182 0
vn -0.7391477 0 0.6735435
g default_0
f 3/3/3 2/2/2 1/1/1
f 4/4/4 3/3/3 1/1/1
f 5/5/5 3/3/3 4/4/4
f 5/5/5 6/6/6 3/3/3
f 3/3/3 6/6/6 2/2/2
f 5/5/5 4/4/4 7/7/7
f 4/4/4 1/1/1 8/8/8
f 7/7/7 4/4/4 8/8/8
f 1/1/1 2/2/2 9/9/9
f 8/8/8 1/1/1 10/10/10
f 1/1/1 9/9/9 10/10/10
f 6/6/6 11/11/11 2/2/2
f 5/5/5 12/12/12 6/6/6
f 6/6/6 12/12/12 11/11/11
f 2/2/2 13/13/13 9/9/9
f 2/2/2 11/11/11 13/13/13
f 7/7/7 8/8/8 14/14/14
f 8/8/8 10/10/10 15/15/15
f 14/14/14 8/8/8 15/15/15
f 5/5/5 7/7/7 16/16/16
f 16/16/16 7/7/7 14/14/14
f 12/12/12 17/17/17 11/11/11
f 11/11/11 18/18/18 13/13/13
f 11/11/11 17/17/17 18/18/18
f 5/5/5 19/19/19 12/12/12
f 12/12/12 19/19/19 17/17/17
f 9/9/9 13/13/13 20/20/20
f 10/10/10 9/9/9 21/21/21
f 9/9/9 20/20/20 21/21/21
f 15/15/15 10/10/10 22/22/22
f 10/10/10 21/21/21 22/22/22
f 13/13/13 18/18/18 23/23/23
f 13/13/13 23/23/23 20/20/20
f 17/17/17 24/24/24 18/18/18
f 19/19/19 25/25/25 17/17/17
f 17/17/17 25/25/25 24/24/24
f 5/5/5 26/26/26 19/19/19
f 19/19/19 26/26/26 25/25/25
f 18/18/18 27/27/27 23/23/23
f 18/18/18 24/24/24 27/27/27
f 21/21/21 20/20/20 28/28/28
f 20/20/20 23/23/23 29/29/29
f 20/20/20 29/29/29 28/28/28
f 22/22/22 21/21/21 30/30/30
f 21/21/21 28/28/28 30/30/30
f 23/23/23 27/27/27 31/31/31
f 23/23/23 31/31/31 29/29/29
f 5/5/5 32/32/32 26/26/26
f 26/26/26 33/33/33 25/25/25
f 26/26/26 32/32/32 33/33/33
f 25/25/25 34/34/34 24/24/24
f 25/25/25 33/33/33 34/34/34
f 24/24/24 35/35/35 27/27/27
f 24/24/24 34/34/34 35/35/35
f 5/5/5 36/36/36 32/32/32
f 5/5/5 16/16/16 36/36/36
f 32/32/32 37/37/37 33/33/33
f 32/32/32 36/36/36 37/37/37
f 36/36/36 16/16/16 38/38/38
f 36/36/36 38/38/38 37/37/37
f 16/16/16 14/14/14 38/38/38
f 33/33/33 39/39/39 34/34/34
f 33/33/33 37/37/37 39/39/39
f 37/37/37 38/38/38 40/40/40
f 37/37/37 40/40/40 39/39/39
f 38/38/38 14/14/14 41/41/41
f 38/38/38 41/41/41 40/40/40
f 14/14/14 15/15/15 41/41/41
f 34/34/34 39/39/39 42/42/42
f 34/34/34 42/42/42 35/35/35
f 39/39/39 40/40/40 43/43/43
f 39/39/39 43/43/43 42/42/42
f 40/40/40 41/41/41 44/44/44
f 40/40/40 44/44/44 43/43/43
f 41/41/41 15/15/15 45/45/45
f 41/41/41 45/45/45 44/44/44
f 15/15/15 22/22/22 45/45/45
f 45/45/45 22/22/22 46/46/46
f 22/22/22 30/30/30 46/46/46
f 44/44/44 45/45/45 47/47/47
f 45/45/45 46/46/46 47/47/47
f 43/43/43 44/44/44 48/48/48
f 44/44/44 47/47/47 48/48/48
f 42/42/42 43/43/43 49/49/49
f 43/43/43 48/48/48 49/49/49
f 35/35/35 42/42/42 50/50/50
f 42/42/42 49/49/49 50/50/50
f 35/35/35 50/50/50 51/51/51
f 27/27/27 35/35/35 51/51/51
f 27/27/27 51/51/51 31/31/31
f 46/46/46 30/30/30 52/52/52
f 47/47/47 46/46/46 53/53/53
f 46/46/46 52/52/52 53/53/53
f 48/48/48 47/47/47 54/54/54
f 47/47/47 53/53/53 54/54/54
f 49/49/49 48/48/48 55/55/55
f 48/48/48 54/54/54 55/55/55
f 50/50/50 49/49/49 56/56/56
f 49/49/49 55/55/55 56/56/56
f 51/51/51 50/50/50 57/57/57
f 50/50/50 56/56/56 57/57/57
f 31/31/31 51/51/51 58/58/58
f 51/51/51 57/57/57 58/58/58
f 30/30/30 59/59/59 52/52/52
f 30/30/30 28/28/28 59/59/59
f 31/31/31 58/58/58 60/60/60
f 29/29/29 31/31/31 60/60/60
f 28/28/28 29/29/29 61/61/61
f 28/28/28 61/61/61 59/59/59
f 29/29/29 60/60/60 61/61/61
f 56/56/56 55/55/55 62/62/62
f 57/57/57 56/56/56 63/63/63
f 56/56/56 62/62/62 63/63/63
f 63/63/63 62/62/62 64/64/64
f 65/65/65 63/63/63 64/64/64
f 57/57/57 63/63/63 65/65/65
f 58/58/58 57/57/57 65/65/65
f 62/62/62 66/66/66 64/64/64
f 55/55/55 66/66/66 62/62/62
f 55/55/55 54/54/54 66/66/66
f 58/58/58 65/65/65 67/67/67
f 60/60/60 58/58/58 67/67/67
f 67/67/67 65/65/65 64/64/64
f 54/54/54 68/68/68 66/66/66
f 66/66/66 68/68/68 64/64/64
f 54/54/54 53/53/53 68/68/68
f 60/60/60 67/67/67 69/69/69
f 69/69/69 67/67/67 64/64/64
f 61/61/61 60/60/60 69/69/69
f 53/53/53 70/70/70 68/68/68
f 68/68/68 70/70/70 64/64/64
f 53/53/53 52/52/52 70/70/70
f 61/61/61 69/69/69 71/71/71
f 71/71/71 69/69/69 64/64/64
f 59/59/59 61/61/61 71/71/71
f 70/70/70 72/72/72 64/64/64
f 52/52/52 72/72/72 70/70/70
f 72/72/72 71/71/71 64/64/64
f 59/59/59 71/71/71 72/72/72
f 52/52/52 59/59/59 72/72/72
g default_1
f 75/75/75 74/74/74 73/73/73
f 76/76/76 75/75/75 73/73/73
f 77/77/77 75/75/75 76/76/76
f 77/77/77 78/78/78 75/75/75
f 75/75/75 78/78/78 74/74/74
f 77/77/77 76/76/76 79/79/79
f 76/76/76 73/73/73 80/80/80
f 79/79/79 76/76/76 80/80/80
f 73/73/73 74/74/74 81/81/81
f 80/80/80 73/73/73 82/82/82
f 73/73/73 81/81/81 82/82/82
f 78/78/78 83/83/83 74/74/74
f 77/77/77 84/84/84 78/78/78
f 78/78/78 84/84/84 83/83/83
f 74/74/74 85/85/85 81/81/81
f 74/74/74 83/83/83 85/85/85
f 79/79/79 80/80/80 86/86/86
f 80/80/80 82/82/82 87/87/87
f 86/86/86 80/80/80 87/87/87
f 77/77/77 79/79/79 88/88/88
f 88/88/88 79/79/79 86/86/86
f 84/84/84 89/89/89 83/83/83
f 83/83/83 90/90/90 85/85/85
f 83/83/83 89/89/89 90/90/90
f 77/77/77 91/91/91 84/84/84
f 84/84/84 91/91/91 89/89/89
f 81/81/81 85/85/85 92/92/92
f 82/82/82 81/81/81 93/93/93
f 81/81/81 92/92/92 93/93/93
f 87/87/87 82/82/82 94/94/94
f 82/82/82 93/93/93 94/94/94
f 85/85/85 90/90/90 95/95/95
f 85/85/85 95/95/95 92/92/92
f 89/89/89 96/96/96 90/90/90
f 91/91/91 97/97/97 89/89/89
f 89/89/89 97/97/97 96/96/96
f 77/77/77 98/98/98 91/91/91
f 91/91/91 98/98/98 97/97/97
f 90/90/90 99/99/99 95/95/95
f 90/90/90 96/96/96 99/99/99
f 93/93/93 92/92/92 100/100/100
f 92/92/92 95/95/95 101/101/101
f 92/92/92 101/101/101 100/100/100
f 94/94/94 93/93/93 102/102/102
f 93/93/93 100/100/100 102/102/102
f 95/95/95 99/99/99 103/103/103
f 95/95/95 103/103/103 101/101/101
f 77/77/77 104/104/104 98/98/98
f 98/98/98 105/105/105 97/97/97
f 98/98/98 104/104/104 105/105/105
f 97/97/97 106/106/106 96/96/96
f 97/97/97 105/105/105 106/106/106
f 96/96/96 107/107/107 99/99/99
f 96/96/96 106/106/106 107/107/107
f 77/77/77 108/108/108 104/104/104
f 77/77/77 88/88/88 108/108/108
f 104/104/104 109/109/109 105/105/105
f 104/104/104 108/108/108 109/109/109
f 108/108/108 88/88/88 110/110/110
f 108/108/108 110/110/110 109/109/109
f 88/88/88 86/86/86 110/110/110
f 105/105/105 111/111/111 106/106/106
f 105/105/105 109/109/109 111/111/111
f 109/109/109 110/110/110 112/112/112
f 109/109/109 112/112/112 111/111/111
f 110/110/110 86/86/86 113/113/113
f 110/110/110 113/113/113 112/112/112
f 86/86/86 87/87/87 113/113/113
f 106/106/106 111/111/111 114/114/114
f 106/106/106 114/114/114 107/107/107
f 111/111/111 112/112/112 115/115/115
f 111/111/111 115/115/115 114/114/114
f 112/112/112 113/113/113 116/116/116
f 112/112/112 116/116/116 115/115/115
f 113/113/113 87/87/87 117/117/117
f 113/113/113 117/117/117 116/116/116
f 87/87/87 94/94/94 117/117/117
f 117/117/117 94/94/94 118/118/118
f 94/94/94 102/102/102 118/118/118
f 116/116/116 117/117/117 119/119/119
f 117/117/117 118/118/118 119/119/119
f 115/115/115 116/116/116 120/120/120
f 116/116/116 119/119/119 120/120/120
f 114/114/114 115/115/115 121/121/121
f 115/115/115 120/120/120 121/121/121
f 107/107/107 114/114/114 122/122/122
f 114/114/114 121/121/121 122/122/122
f 107/107/107 122/122/122 123/123/123
f 99/99/99 107/107/107 123/123/123
f 99/99/99 123/123/123 103/103/103
f 118/118/118 102/102/102 124/124/124
f 119/119/119 118/118/118 125/125/125
f 118/118/118 124/124/124 125/125/125
f 120/120/120 119/119/119 126/126/126
f 119/119/119 125/125/125 126/126/126
f 121/121/121 120/120/120 127/127/127
f 120/120/120 126/126/126 127/127/127
f 122/122/122 121/121/121 128/128/128
f 121/121/121 127/127/127 128/128/128
f 123/123/123 122/122/122 129/129/129
f 122/122/122 128/128/128 129/129/129
f 103/103/103 123/123/123 130/130/130
f 123/123/123 129/129/129 130/130/130
f 102/102/102 131/131/131 124/124/124
f 102/102/102 100/100/100 131/131/131
f 103/103/103 130/130/130 132/132/132
f 101/101/101 103/103/103 132/132/132
f 100/100/100 101/101/101 133/133/133
f 100/100/100 133/133/133 131/131/131
f 101/101/101 132/132/132 133/133/133
f 128/128/128 127/127/127 134/134/134
f 129/129/129 128/128/128 135/135/135
f 128/128/128 134/134/134 135/135/135
f 135/135/135 134/134/134 136/136/136
f 137/137/137 135/135/135 136/136/136
f 129/129/129 135/135/135 137/137/137
f 130/130/130 129/129/129 137/137/137
f 134/134/134 138/138/138 136/136/136
f 127/127/127 138/138/138 134/134/134
f 127/127/127 126/126/126 138/138/138
f 130/130/130 137/137/137 139/139/139
f 132/132/132 130/130/130 139/139/139
f 139/139/139 137/137/137 136/136/136
f 126/126/126 140/140/140 138/138/138
f 138/138/138 140/140/140 136/136/136
f 126/126/126 125/125/125 140/140/140
f 132/132/132 139/139/139 141/141/141
f 141/141/141 139/139/139 136/136/136
f 133/133/133 132/132/132 141/141/141
f 125/125/125 142/142/142 140/140/140
f 140/140/140 142/142/142 136/136/136
f 125/125/125 124/124/124 142/142/142
f 133/133/133 141/141/141 143/143/143
f 143/143/143 141/141/141 136/136/136
f 131/131/131 133/133/133 143/143/143
f 142/142/142 144/144/144 136/136/136
f 124/124/124 144/144/144 142/142/142
f 144/144/144 143/143/143 136/136/136
f 131/131/131 143/143/143 144/144/144
f 124/124/124 131/131/131 144/144/144
g default_2
f 147/147/147 146/146/146 145/145/145
f 148/148/148 147/147/147 145/145/145
f 148/148/148 145/145/145 149/149/149
f 147/147/147 150/150/150 146/146/146
f 150/150/150 151/151/151 146/146/146
f 152/152/152 148/148/148 149/149/149
f 152/152/152 149/149/149 153/153/153
f 150/150/150 154/154/154 151/151/151
f 154/154/154 155/155/155 151/151/151
f 156/156/156 152/152/152 153/153/153
f 156/156/156 153/153/153 157/157/157
f 154/154/154 158/158/158 155/155/155
f 158/158/158 159/159/159 155/155/155
f 158/158/158 160/160/160 159/159/159
f 160/160/160 161/161/161 159/159/159
f 162/162/162 160/160/160 158/158/158
f 160/160/160 162/162/162 161/161/161
f 158/158/158 154/154/154 162/162/162
f 162/162/162 163/163/163 161/161/161
f 154/154/154 164/164/164 162/162/162
f 162/162/162 164/164/164 163/163/163
f 154/154/154 150/150/150 164/164/164
f 164/164/164 165/165/165 163/163/163
f 150/150/150 166/166/166 164/164/164
f 164/164/164 166/166/166 165/165/165
f 150/150/150 147/147/147 166/166/166
f 166/166/166 167/167/167 165/165/165
f 147/147/147 168/168/168 166/166/166
f 166/166/166 168/168/168 167/167/167
f 147/147/147 148/148/148 168/168/168
f 168/168/168 169/169/169 167/167/167
f 148/148/148 170/170/170 168/168/168
f 168/168/168 170/170/170 169/169/169
f 148/148/148 152/152/152 170/170/170
f 170/170/170 171/171/171 169/169/169
f 152/152/152 172/172/172 170/170/170
f 170/170/170 172/172/172 171/171/171
f 172/172/172 173/173/173 171/171/171
f 152/152/152 156/156/156 172/172/172
f 172/172/172 174/174/174 173/173/173
f 156/156/156 174/174/174 172/172/172
f 174/174/174 175/175/175 173/173/173
f 156/156/156 176/176/176 174/174/174
f 176/176/176 156/156/156 157/157/157
f 176/176/176 157/157/157 177/177/177
f 174/174/174 178/178/178 175/175/175
f 176/176/176 178/178/178 174/174/174
f 178/178/178 179/179/179 175/175/175
f 180/180/180 176/176/176 177/177/177
f 176/176/176 180/180/180 178/178/178
f 180/180/180 177/177/177 181/181/181
f 178/178/178 182/182/182 179/179/179
f 180/180/180 182/182/182 178/178/178
f 182/182/182 183/183/183 179/179/179
f 184/184/184 181/181/181 183/183/183
f 184/184/184 180/180/180 181/181/181
f 182/182/182 184/184/184 183/183/183
f 180/180/180 184/184/184 182/182/182
